<svg width="15" height="15" viewBox="0 0 15 15" fill="none" xmlns="http://www.w3.org/2000/svg">
<path fill-rule="evenodd" clip-rule="evenodd" d="M13.3662 12.4579C13.3662 12.4579 11.4746 13.975 7.71032 13.3472C4.85444 12.8709 3.33125 9.72272 3.33125 8.03053C3.33125 4.01847 6.30069 3.10545 8.30824 3.10545C10.3158 3.10545 11.6254 5.0627 11.6254 6.5781C11.6254 8.09349 10.5536 9.41897 8.88563 9.41897C7.2177 9.41897 6.7237 8.24799 6.7237 7.17142C6.7237 6.09488 7.5947 5.71559 8.38905 5.71559C9.18341 5.71559 9.4554 6.39377 9.4554 6.97663C9.4554 7.55953 9.00315 7.76826 8.62594 7.76826C8.24874 7.76826 8.21144 7.57796 8.06708 7.37796C7.92268 7.17798 8.2512 6.42099 7.71032 6.42099C7.16944 6.42099 7.06862 7.29123 7.06862 7.29123C7.06862 7.29123 7.26581 8.97109 8.88563 8.94211C10.5055 8.9131 11.2739 7.66082 11.0506 6.42099C10.8273 5.18113 9.62402 3.86365 7.51225 4.12987C5.40048 4.39609 4.53827 6.52984 4.91832 8.81008C5.29837 11.0904 8.0301 12.4116 10.1779 11.9362C12.3258 11.4609 14.465 9.90594 14.465 5.96353C14.465 2.02109 11.0506 -0.348676 6.97922 0.0418739C2.90783 0.432422 0.380502 3.9919 0.542273 8.26868C0.704044 12.5455 4.76221 14.8747 8.1938 14.9948C11.6254 15.1148 13.7291 13.1284 13.7291 13.1284C13.7291 13.1284 14.2022 12.7065 14.0167 12.377C13.8312 12.0476 13.3662 12.4579 13.3662 12.4579Z" fill="#EA5D60"/>
</svg>
