<svg width="16" height="15" viewBox="0 0 16 15" fill="none" xmlns="http://www.w3.org/2000/svg">
<g clip-path="url(#clip0)">
<path fill-rule="evenodd" clip-rule="evenodd" d="M12.4416 7.18422C12.4408 7.18305 12.4404 7.18159 12.4407 7.18016L13.3956 1.61162C13.3961 1.60905 13.3983 1.60718 13.4009 1.60718H13.7031C13.7055 1.60718 13.7075 1.60869 13.7082 1.61091L15.8597 8.42308C15.8604 8.42519 15.8597 8.42753 15.8579 8.4289L14.2716 9.66744C14.2692 9.66928 14.2658 9.66882 14.264 9.66639L12.4416 7.18422ZM0.859985 10.8758C0.859985 10.8781 0.86147 10.8801 0.863666 10.8808L4.13373 11.95C4.13531 11.9506 4.13706 11.9503 4.13844 11.9494L11.4478 6.90317C11.449 6.90232 11.4498 6.90101 11.45 6.89955L12.2339 1.64017C12.2344 1.63694 12.2319 1.63404 12.2286 1.63404H5.75433C5.75272 1.63404 5.75123 1.63475 5.75021 1.63597L0.861214 7.5338C0.86042 7.53476 0.859985 7.53596 0.859985 7.53722V10.8758ZM5.49638 12.2225L9.06886 13.3927C9.07047 13.3932 9.07225 13.393 9.07362 13.392L13.3269 10.3411C13.3293 10.3394 13.3299 10.3362 13.3282 10.3338L11.7338 7.96109C11.7321 7.95861 11.7288 7.95796 11.7264 7.95966L5.49638 12.2225Z" fill="#BAAB82"/>
</g>
<defs>
<clipPath id="clip0">
<rect width="15" height="15" fill="white" transform="translate(0.859985)"/>
</clipPath>
</defs>
</svg>
