<svg width="12" height="12" viewBox="0 0 12 12" fill="none" xmlns="http://www.w3.org/2000/svg">
<path d="M2.06812 6.07812V1.82031H2.04469L0.65406 2.77344V1.66406L2.02906 0.726562H3.26344V6.07812H2.06812ZM2.09937 12H0.739998L5.09156 6.05469L8.99 0.726562H10.3337L6.09937 6.52344L2.09937 12ZM7.12281 8.28125C7.12281 7.76042 7.31031 7.33854 7.68531 7.01562C8.06552 6.6875 8.55771 6.52344 9.16187 6.52344C9.74521 6.52344 10.2192 6.66927 10.5837 6.96094C10.9483 7.2526 11.1306 7.63021 11.1306 8.09375C11.1306 8.36979 11.0577 8.63281 10.9119 8.88281C10.766 9.13281 10.5082 9.43229 10.1384 9.78125L8.84937 10.9922V11.0156H11.2009V12H7.19312V11.1562L9.25562 9.22656C9.50041 8.98698 9.66969 8.79167 9.76344 8.64062C9.85719 8.48438 9.90406 8.32812 9.90406 8.17188C9.90406 7.96875 9.82854 7.80469 9.6775 7.67969C9.53166 7.54948 9.34156 7.48438 9.10719 7.48438C8.87281 7.48438 8.6775 7.5599 8.52125 7.71094C8.365 7.86198 8.28687 8.05208 8.28687 8.28125V8.30469H7.12281V8.28125Z" fill="#747476"/>
</svg>
