<svg width="26" height="20" viewBox="0 0 26 20" fill="none" xmlns="http://www.w3.org/2000/svg">
<path d="M4.8023 10.0041C4.52905 10.0554 4.29591 10.0829 4.17887 10.35C4.10749 10.5129 3.98599 10.5623 3.84224 10.4085C3.67191 10.2262 3.53777 10.3091 3.41715 10.471C3.39413 10.5019 3.37743 10.5377 3.35326 10.5675C3.28297 10.6543 3.23279 10.7917 3.09021 10.7491C2.97607 10.715 2.96524 10.5896 2.93826 10.487C2.92196 10.425 2.9563 10.351 2.88344 10.2884C2.82444 10.3303 2.76617 10.3778 2.7024 10.416C2.5411 10.5127 2.44026 10.4596 2.42111 10.2786C2.40768 10.1517 2.43007 10.018 2.23612 10.0237C2.20996 10.0245 2.15441 9.96252 2.15954 9.9515C2.25754 9.74067 2.08243 9.49611 2.18817 9.31913C2.54275 8.72561 2.7984 8.07606 3.23553 7.52842C3.8177 6.79908 4.49589 6.17701 5.23166 5.60758C6.10999 4.92782 7.087 4.43199 8.10522 4.0085C8.25143 3.94769 8.3516 3.86547 8.39421 3.71406C8.39919 3.69529 8.40773 3.67765 8.41937 3.66211C8.88602 3.07103 8.92529 2.3543 9.02036 1.65112C9.07805 1.20019 9.20782 0.761467 9.4047 0.351717C9.57202 0.00878909 9.65282 -0.0146586 10.0137 0.090134C10.6315 0.269561 11.2163 0.508925 11.7006 0.948378C11.8126 1.05 11.9371 1.05142 12.0788 1.01562C13.0862 0.761189 14.0691 0.828525 15.0197 1.25985C15.1738 1.32982 15.2932 1.31181 15.4477 1.22592C16.0886 0.869822 16.7345 0.51175 17.4922 0.471712C17.9155 0.449346 18.005 0.503226 18.0796 0.927788C18.1988 1.60605 18.1824 2.29424 18.111 2.97557C18.0502 3.55656 18.0302 3.54793 18.5669 3.80032C20.0334 4.48997 21.4027 5.33493 22.568 6.46847C23.4326 7.30951 24.2363 8.21055 24.853 9.25908C25.0374 9.57258 25.1501 9.9204 25.3657 10.2252C25.4553 10.3518 25.6484 10.6605 25.298 10.8224C25.2025 10.8665 25.2538 10.9558 25.2682 11.0288C25.3283 11.3336 25.3156 11.3448 25.0033 11.2602C24.9669 11.2504 24.9313 11.238 24.8974 11.2274C24.8362 11.3018 24.8972 11.3622 24.9012 11.4251C24.9116 11.5917 24.8265 11.6379 24.6855 11.5821C24.5894 11.5371 24.4966 11.4856 24.4076 11.4279C24.0917 11.2489 23.9365 11.2797 23.7267 11.5634C23.5597 11.7893 23.4281 11.7888 23.3566 11.5186C23.273 11.2026 23.058 11.1411 22.7941 11.0773C22.5557 11.0197 22.5543 11.1034 22.5998 11.2907C22.7295 11.8246 22.9232 12.3484 22.963 12.8973C22.9982 13.3831 23.2313 13.823 23.2396 14.309C23.2424 14.4668 23.3922 14.4911 23.4738 14.5784C23.79 14.9163 24.1048 14.9609 24.4632 14.6313C24.5581 14.5441 24.7124 14.4434 24.8573 14.5568C24.9834 14.6554 24.9583 14.8216 24.9084 14.9351C24.612 15.61 24.7765 16.3419 24.6439 17.0229C24.3734 18.4122 23.5337 19.3648 22.1431 19.7909C21.5387 19.9761 20.9433 20.0312 20.3245 19.869C19.8421 19.7503 19.4223 19.454 19.1488 19.0392C19.0433 18.883 18.9395 18.8092 18.7447 18.8593C17.8979 19.0769 17.0582 18.9838 16.2273 18.7682C15.8743 18.6709 15.5029 18.6605 15.145 18.7379C13.928 19.0019 12.6947 19.0734 11.4684 18.8381C10.9271 18.7396 10.3971 18.5872 9.88615 18.3831C9.63515 18.2822 9.35825 18.2651 9.09674 18.3344C8.43558 18.4832 7.76439 18.5559 7.08576 18.4673C6.91396 18.4449 6.77489 18.4545 6.65533 18.6169C6.29652 19.1042 5.78015 19.3315 5.2018 19.4273C3.34753 19.7343 1.65217 18.4354 1.11428 17.0046C1.10148 16.9786 1.09133 16.9514 1.08399 16.9233C0.9968 16.3051 0.810974 15.7049 0.533595 15.1456C0.438351 14.958 0.556535 14.8539 0.750874 14.8453C0.827952 14.8404 0.905326 14.8479 0.979971 14.8678C1.20583 14.9342 1.34482 14.8361 1.50841 14.6804C1.78555 14.4167 1.93277 14.139 1.90141 13.7445C1.88 13.4753 2.05341 13.3878 2.30266 13.4929C2.33989 13.5037 2.37403 13.5232 2.40231 13.5497C2.71497 13.9508 3.15373 13.8437 3.56724 13.8465C3.69986 13.8474 3.77522 13.7879 3.84753 13.6829C4.05009 13.4009 4.17134 13.0688 4.19804 12.7226C4.26832 11.8465 4.4601 10.9845 4.76787 10.1612C4.78211 10.1095 4.7936 10.0571 4.8023 10.0041Z" fill="white"/>
</svg>
