<svg width="26" height="26" viewBox="0 0 26 26" fill="none" xmlns="http://www.w3.org/2000/svg">
<g clip-path="url(#clip0)">
<path d="M17.6357 6.98185C17.6173 7.38325 17.6359 7.78864 17.5731 8.1904C17.5526 8.32133 17.5435 8.44998 17.6663 8.56168C18.5358 9.35225 18.9336 10.3801 19.1272 11.5072C19.3035 12.5334 19.2449 13.5565 18.9051 14.5311C18.4995 15.6945 17.8806 16.7347 16.7778 17.3945C16.6507 17.4706 16.6146 17.5491 16.6286 17.6957C16.6521 17.9936 16.6386 18.2932 16.5884 18.5878C16.4944 19.2051 16.8661 19.6288 17.2693 20.0072C17.9681 20.6687 18.8589 21.0913 19.8133 21.2139C20.6937 21.3345 21.4946 21.1073 22.22 20.6034C22.4349 20.4541 22.6953 20.3389 22.671 20.0019C22.6651 19.9205 22.7494 19.8707 22.8264 19.8491C23.0859 19.7762 23.0601 19.6365 22.9812 19.4168C22.6688 18.5467 22.6513 17.6409 22.7166 16.7304C22.7422 16.2779 22.8279 15.8309 22.9716 15.4011C23.1284 14.9227 23.4072 14.4934 23.7803 14.1554C24.0818 13.886 24.4344 13.7436 24.8178 13.8789C25.2181 14.0202 25.3764 14.379 25.4473 14.7819C25.628 15.8093 25.3161 16.7546 24.9383 17.6768C24.6797 18.3081 24.4391 18.9541 24.05 19.5249C23.974 19.636 23.892 19.743 23.8045 19.8454C23.7424 19.9183 23.7164 19.9835 23.7582 20.0797C23.8879 20.3777 23.7779 20.6249 23.5745 20.8441C23.4952 20.9296 23.4075 21.0042 23.4149 21.1373C23.4373 21.5443 23.2522 21.8897 23.0576 22.2206C22.8386 22.593 22.5886 22.948 22.3392 23.3015C22.108 23.624 21.8127 23.8951 21.4718 24.098C20.7789 24.5212 20.0664 24.8843 19.2795 25.121C17.3553 25.6998 15.4651 25.5314 13.5559 25.0315C12.191 24.6741 10.9988 24.0305 9.91853 23.1483C9.5507 22.8478 9.21446 22.516 8.97124 22.1029C8.86115 21.916 8.75024 21.9062 8.54517 21.993C7.34762 22.4996 6.22568 21.727 6.28566 20.4577C6.2891 20.3419 6.31912 20.2285 6.3734 20.1262C6.45222 19.9894 6.43005 19.8724 6.3762 19.7423C6.17178 19.2482 6.201 18.7812 6.55915 18.3634C6.65948 18.2463 6.60503 18.1757 6.51619 18.099C6.48239 18.0716 6.44272 18.0524 6.40029 18.0429C6.35785 18.0333 6.31378 18.0337 6.27151 18.0439C5.3479 18.1846 4.71913 17.382 4.63187 16.6156C4.57365 16.1043 4.62237 15.61 5.0083 15.2125C5.03671 15.1795 5.05827 15.1411 5.07174 15.0997C5.08521 15.0582 5.09031 15.0145 5.08676 14.9711C5.09826 14.5537 5.2209 14.147 5.44204 13.7929C5.54197 13.624 5.48697 13.5679 5.33449 13.4959C4.73583 13.2131 4.1874 12.8659 3.79484 12.3082C3.33072 11.6487 3.079 10.9284 3.10899 10.1182C3.12374 9.94516 3.08022 9.77215 2.98535 9.62669C2.37888 8.72047 2.25006 7.70718 2.31681 6.64486C2.35907 5.95289 2.51935 5.27324 2.79072 4.6353C2.8799 4.42498 2.81006 4.35854 2.60401 4.30264C2.2135 4.19655 1.82885 4.06994 1.45166 3.92336C1.1753 3.8178 0.936915 3.63183 0.76728 3.38945C0.597645 3.14708 0.504546 2.85943 0.5 2.56362C0.501726 1.88485 1.41915 1.00636 2.27779 1.47507C2.88928 1.80887 3.42614 2.25469 4.03328 2.59437C4.21678 2.69703 4.32694 2.68857 4.49109 2.56519C5.09134 2.11401 5.67759 1.64296 6.35596 1.30249C6.80936 1.07492 7.29325 0.953731 7.77087 0.80219C8.91744 0.438409 10.0931 0.511006 11.2664 0.5384C11.6486 0.547321 12.0057 0.692847 12.3554 0.81817C13.3474 1.17364 14.3009 1.62375 15.1286 2.285C15.9101 2.90938 16.5859 3.64535 16.9957 4.56972C17.3344 5.3338 17.6654 6.11266 17.6357 6.98185Z" fill="#99CD7C"/>
</g>
<defs>
<clipPath id="clip0">
<rect width="25" height="25" fill="white" transform="translate(0.5 0.5)"/>
</clipPath>
</defs>
</svg>
