<svg width="26" height="26" viewBox="0 0 26 26" fill="none" xmlns="http://www.w3.org/2000/svg">
<g clip-path="url(#clip0)">
<path d="M9.69526 22.4936C9.30315 22.2754 8.92482 22.0682 8.55023 21.8544C8.44354 21.7936 8.36932 21.8245 8.29586 21.9035C7.52861 22.7288 6.49599 22.9503 5.45367 23.1293C4.7103 23.2569 3.95237 23.1964 3.20171 23.2412C2.36511 23.2912 1.54322 23.3656 0.845004 23.9026C0.671774 24.0358 0.57211 23.931 0.533757 23.7637C0.478979 23.5362 0.491067 23.2978 0.568566 23.077C1.26598 21.1418 2.51013 19.7692 4.55254 19.2211C5.20528 19.0428 5.88164 18.9663 6.55771 18.9944C6.80334 19.0053 6.90348 18.9443 6.88546 18.6734C6.78476 17.1594 7.33338 15.8423 8.13619 14.6008C9.34758 12.7273 10.5637 10.8553 11.2608 8.70841C11.5136 7.9297 11.516 7.92741 10.7273 7.77909C10.2227 7.68421 9.72524 7.56715 9.26295 7.33676C9.03277 7.22204 8.78421 7.20349 8.53809 7.15836C8.0058 7.06076 7.90376 6.93471 7.90232 6.31005C7.90054 5.53797 8.24095 4.89047 8.72108 4.31698C8.97221 4.01701 9.11295 3.73586 8.89968 3.3569C8.82582 3.22565 8.80371 3.06447 8.76291 2.91561C8.69954 2.68445 8.80503 2.52038 8.98854 2.39931C9.17048 2.27928 9.32237 2.36406 9.45211 2.49708C9.5347 2.59675 9.62635 2.68854 9.7259 2.77127C9.65672 2.26885 9.82567 1.85518 10.1215 1.50236C10.7393 0.765441 11.7649 0.778025 12.3909 1.51302C12.5569 1.70294 12.6812 1.92555 12.7558 2.16648C12.7928 2.29029 12.8155 2.41781 12.9615 2.45366C13.1113 2.49045 13.1556 2.35547 13.2264 2.27129C13.7531 1.64451 14.4479 1.42978 15.1402 1.68228C15.8274 1.93294 16.4623 2.79554 16.463 3.47932C16.4637 4.13194 15.9299 4.84585 15.2575 5.0645C15.0746 5.12398 14.9623 5.21429 14.9786 5.40737C15.0244 5.94965 14.8075 6.4305 14.6297 6.91809C14.1895 8.12481 13.7693 9.33697 13.5085 10.598C13.4812 10.7302 13.4597 10.8636 13.4384 10.9969C13.3405 11.6104 13.3386 11.617 13.9042 11.8172C14.0755 11.8779 14.2292 12.0964 14.3801 12.0242C14.4992 11.9671 14.5213 11.7229 14.6041 11.5715C14.7709 11.2661 15.1229 11.1849 15.6103 11.3265C15.953 11.4261 16.035 11.5486 16.0216 11.9499C16.0113 12.2586 16.003 12.5676 15.9827 12.8757C15.9738 13.0117 16.0169 13.0937 16.1429 13.1472C16.2856 13.2062 16.4241 13.2747 16.5575 13.3523C16.8798 13.5444 17.1717 13.6407 17.4489 13.2605C17.582 13.078 17.78 13.1259 17.9698 13.2384C18.2143 13.3833 18.4234 13.5734 18.3319 13.8598C18.2078 14.2479 18.3369 14.4971 18.6146 14.7448C18.9018 15.0055 19.1359 15.3193 19.3041 15.6688C19.3984 15.8599 19.5137 15.9463 19.7405 15.8562C20.036 15.7387 20.2722 15.8836 20.4512 16.1054C20.6344 16.3322 20.712 16.6079 20.5074 16.8504C20.1238 17.3051 20.1372 17.7921 20.2931 18.3216C20.3975 18.6761 20.6097 18.8793 20.9755 18.8774C21.7763 18.8734 22.4478 19.2383 23.105 19.629C23.8513 20.0726 24.5443 20.6035 25.3247 20.9926C25.4076 21.0339 25.5126 21.085 25.4988 21.201C25.4895 21.2638 25.4624 21.3226 25.4206 21.3705C25.3789 21.4183 25.3242 21.4532 25.2632 21.4709C24.8355 21.6235 24.3888 21.7161 23.9357 21.746C23.6413 21.7713 23.3468 21.7953 23.0042 21.8239C23.3996 22.1211 23.7806 22.3649 24.089 22.695C24.2388 22.8453 24.3777 23.0061 24.5048 23.1761C24.6541 23.3898 24.5806 23.5422 24.3239 23.535C23.5865 23.5142 22.862 23.6418 22.1313 23.6956C21.3234 23.755 20.6218 23.4403 19.9482 23.0396C19.853 22.983 19.7741 22.8876 19.6243 22.8897C19.7063 23.3095 19.9095 23.6709 20.0739 24.0453C20.2983 24.5562 20.2054 24.6859 19.6335 24.6607C18.464 24.6077 17.3139 24.3422 16.2396 23.8771C15.8911 23.7341 15.5292 23.6262 15.1594 23.5549C15.0715 23.5305 14.9782 23.5337 14.8922 23.5642C14.8062 23.5946 14.7317 23.6508 14.6787 23.7251C14.2974 24.1854 13.7683 24.3545 13.1939 24.4102C12.5973 24.4681 11.9985 24.4688 11.3999 24.4704C10.5992 24.4726 9.82082 24.5726 9.11508 24.9918C8.94421 25.0932 8.82544 25.0455 8.74661 24.8657C8.66389 24.6912 8.63589 24.4956 8.66628 24.3048C8.77658 23.6258 9.1297 23.086 9.59534 22.6046C9.6273 22.5715 9.65696 22.5362 9.69526 22.4936Z" fill="white"/>
</g>
<defs>
<clipPath id="clip0">
<rect width="25" height="25" fill="white" transform="translate(0.5 0.5)"/>
</clipPath>
</defs>
</svg>
