<svg width="26" height="24" viewBox="0 0 26 24" fill="none" xmlns="http://www.w3.org/2000/svg">
<path d="M2.15012 13.5208C2.73008 13.5234 2.70825 13.5246 2.67754 12.9495C2.63463 12.1462 2.74185 11.3529 2.9251 10.5702C3.22922 9.27119 3.78648 8.09842 4.65278 7.07651C4.85544 6.83746 4.81615 6.52472 4.83513 6.24491C4.9276 4.88225 5.14012 3.54582 5.57786 2.24703C5.79113 1.61423 5.99841 0.986072 6.41513 0.446898C6.60724 0.198344 6.76673 0.114604 7.11361 0.222018C8.5962 0.6811 9.83259 1.53153 10.9891 2.52657C11.1812 2.69186 11.3168 2.9056 11.4772 3.09821C11.6544 3.31086 11.835 3.41738 12.1487 3.28335C13.0314 2.90629 13.952 2.67192 14.9263 2.71687C15.7535 2.75503 16.4587 3.08674 17.0652 3.62602C17.7025 4.19271 18.1715 4.86814 18.3661 5.7224C18.4786 6.21632 19.0937 6.61326 19.5984 6.63026C20.6116 6.66438 21.6124 6.77609 22.5976 7.0524C23.5151 7.30969 24.3984 7.62311 25.1925 8.15727C25.5149 8.37413 25.5776 8.58467 25.4096 8.92143C25.0397 9.66296 24.6657 10.4051 24.1736 11.0741C23.5351 11.9423 22.7837 12.7027 21.8527 13.2598C21.558 13.4362 21.4085 13.6544 21.381 13.9938C21.3101 14.868 20.9803 15.6676 20.6702 16.4782C20.0665 18.0568 18.887 19.1581 17.6578 20.2239C17.4324 20.4193 17.391 20.7085 17.2327 20.9373C17.1597 21.0429 17.3283 21.0737 17.3994 21.1243C17.9246 21.4986 18.2844 22.0149 18.5578 22.5788C18.7531 22.9818 18.6057 23.3251 18.2371 23.5447C17.8105 23.8025 17.3008 23.8858 16.8143 23.7772C15.5972 23.5258 14.5066 23.0243 13.6276 22.121C13.5171 22.0075 13.3942 22.0104 13.2548 22.0317C11.9849 22.226 10.7407 22.1612 9.51985 21.7159C9.18711 21.5945 8.83408 21.5249 8.51566 21.3594C8.41086 21.305 8.33764 21.3428 8.25764 21.4141C7.03975 22.5006 5.58642 22.7036 4.03811 22.5162C3.83429 22.4915 3.6311 22.3909 3.44697 22.2901C3.14232 22.1233 3.03999 21.8032 3.12857 21.4362C3.2797 20.8102 3.76769 20.4678 4.24021 20.1171C4.58303 19.8627 4.97347 19.6902 5.36995 19.5364C5.53328 19.4731 5.59584 19.4261 5.43615 19.2693C4.71589 18.562 4.08109 17.7882 3.64576 16.8675C3.62092 16.8162 3.58499 16.7711 3.54056 16.7353C3.49613 16.6996 3.44431 16.6742 3.38886 16.661C2.37394 16.3259 1.47223 15.7152 0.784542 14.897C0.326309 14.3626 0.42113 13.9668 1.07196 13.6928C1.41797 13.5471 1.7803 13.5126 2.15012 13.5208Z" fill="#FFC5E6"/>
</svg>
