<svg width="24" height="26" viewBox="0 0 24 26" fill="none" xmlns="http://www.w3.org/2000/svg">
<path d="M19.5569 12.4573C19.33 12.2905 19.1371 12.2553 18.9608 12.1861C18.8692 12.1554 18.7847 12.1068 18.7121 12.0431C18.6395 11.9794 18.5804 11.9019 18.5381 11.815C18.374 11.4661 18.2251 11.1078 18.0317 10.7757C17.8846 10.5232 17.8983 10.2979 17.9822 10.0361C18.125 9.59107 18.1151 9.5309 17.6586 9.51251C16.9581 9.4843 16.6196 8.94572 16.1585 8.57577C15.8918 8.36176 15.6558 8.12286 15.6664 7.7398C15.6711 7.56797 15.5574 7.53111 15.44 7.60812C15.0648 7.85437 14.7691 7.7129 14.4892 7.44445C14.371 7.33109 14.2644 7.35109 14.1321 7.44191C13.7401 7.7112 13.2639 7.80976 12.8564 8.05306C12.7173 8.13612 12.5754 8.02647 12.4382 7.99536C12.2833 7.96021 12.1823 7.97831 12.2046 8.16301C12.2404 8.45879 12.0773 8.66333 11.8866 8.8436C11.4351 9.27047 11.0358 9.73418 10.7353 10.2828C10.6595 10.4239 10.554 10.5469 10.4261 10.6433C10.2982 10.7397 10.151 10.8072 9.99446 10.8413C9.68648 10.9155 9.39456 11.0546 9.07388 11.0773C8.94503 11.0864 8.92187 11.1674 8.90759 11.2715C8.84724 11.7109 8.7816 12.1506 8.79916 12.5953C8.81435 12.9799 8.67659 13.2554 8.32794 13.4474C7.38358 13.9675 6.85859 14.8169 6.53635 15.8115C6.45136 16.0804 6.28058 16.314 6.05017 16.4766C5.62775 16.7806 5.19163 17.0656 4.76903 17.3694C4.52331 17.546 4.25206 17.5149 3.98774 17.4818C3.70096 17.4435 3.4114 17.4301 3.12232 17.4418C2.97237 17.4557 2.82159 17.4263 2.68778 17.3572C2.55397 17.2882 2.44272 17.1822 2.36717 17.052C2.27554 16.9083 2.1687 16.7937 1.98993 16.7672C1.95107 16.7631 1.91429 16.7476 1.88425 16.7226C1.36022 16.2021 0.749036 15.7642 0.342999 15.1316C0.119075 14.7827 0.124658 14.3971 0.236764 14.0146C0.391652 13.4861 0.423749 12.9737 0.117068 12.483C0.0589959 12.39 0.0937957 12.3032 0.153344 12.2154C0.234239 12.0962 0.295713 11.9639 0.373774 11.8425C0.500288 11.6458 0.513328 11.4737 0.310894 11.3117C0.193871 11.2181 0.187606 11.0812 0.222726 10.9395C0.341006 10.4622 0.453157 9.98345 0.573806 9.5068C0.619424 9.33852 0.697809 9.18089 0.804469 9.04297C1.02906 8.74109 1.26239 8.4451 1.47379 8.13421C1.68155 7.83048 1.96595 7.58711 2.29814 7.42879C2.51221 7.32304 2.62261 7.16725 2.64791 6.91156C2.73152 6.06663 2.74804 5.21837 2.79246 4.37195C2.84396 3.39048 2.95291 2.41132 2.91995 1.42516C2.90828 1.07597 3.27744 0.768263 3.61953 0.800677C3.79766 0.817554 3.85902 0.941564 3.87504 1.09988C3.93132 1.65611 3.97293 2.21427 4.04638 2.76822C4.15891 3.61698 4.23109 4.46983 4.35911 5.33247C4.42241 5.16961 4.50587 5.01143 4.54487 4.84294C4.62986 4.47575 4.86513 4.23543 5.1666 4.04379C5.53254 3.81117 5.91067 3.59646 6.26639 3.34934C6.6926 3.05324 7.15563 3.01372 7.64846 3.07454C8.25764 3.14971 8.25875 3.14545 8.51293 2.60739C8.57059 2.48534 8.63064 2.36356 8.6763 2.23686C8.81256 1.85873 9.05965 1.60215 9.44761 1.47583C9.98539 1.30073 10.4501 0.98123 10.9223 0.683962C11.1311 0.552515 11.335 0.478483 11.5735 0.505541C12.1404 0.569845 12.7097 0.560784 13.2779 0.557687C13.614 0.555854 13.8498 0.689463 14.0192 0.969018C14.1392 1.16696 14.2685 1.35929 14.3865 1.55835C14.4743 1.70639 14.5916 1.74481 14.7532 1.69835C14.9944 1.62899 15.2391 1.56817 15.4604 1.44679C15.5185 1.41221 15.5857 1.39584 15.6532 1.3998C15.7207 1.40376 15.7855 1.42786 15.8392 1.469C16.277 1.75005 16.7171 2.02755 17.1555 2.30776C17.2718 2.38212 17.3808 2.47913 17.4161 2.6092C17.4953 2.90043 17.694 2.8633 17.8882 2.78894C18.2391 2.65464 18.582 2.49941 18.9275 2.35148C19.4692 2.11962 20.0045 2.14747 20.4929 2.46497C21.0027 2.79643 21.4967 3.15416 22.0535 3.40208C22.3445 3.53162 22.5288 3.7352 22.6061 4.02756C22.8253 4.85646 23.0327 5.68851 23.2392 6.52071C23.2895 6.72366 23.1903 6.90049 23.0924 7.06641C22.9801 7.26895 22.8524 7.46249 22.7103 7.6453C22.5606 7.82719 22.6006 7.9505 22.7694 8.07479C22.8874 8.17401 23.0105 8.26714 23.1381 8.35379C23.3074 8.45038 23.437 8.60384 23.5039 8.78691C23.6445 9.16566 23.7755 9.54793 23.8967 9.93375C23.9128 9.9942 23.9167 10.0572 23.9083 10.1192C23.8998 10.1812 23.8791 10.2409 23.8473 10.2948C23.5024 10.972 23.1709 11.6561 22.8298 12.3354C22.7818 12.4311 22.8392 12.4797 22.8849 12.5381C23.1165 12.8343 23.3317 13.1461 23.5879 13.4193C23.7839 13.6284 23.8425 13.8507 23.7745 14.1066C23.6508 14.5722 23.5084 15.033 23.3724 15.4953C23.341 15.6021 23.2554 15.6697 23.1811 15.7452C22.8904 16.0402 22.577 16.3148 22.3558 16.6722C22.2741 16.8042 22.1418 16.863 21.9968 16.8954C21.9135 16.9199 21.8274 16.9342 21.7406 16.9378C21.1837 16.9216 20.8212 17.1273 20.7702 17.734C20.7549 17.917 20.6008 18.0215 20.4406 18.0658C19.9243 18.2085 19.4763 18.5676 18.9087 18.5473C18.8032 18.5436 18.7496 18.6084 18.7541 18.7133C18.7633 18.9281 18.6568 19.1024 18.5584 19.279C18.3052 19.7337 17.9698 20.0337 17.3962 19.9397C17.1249 19.8952 16.8617 19.8835 16.8143 20.2854C16.7994 20.4122 16.6351 20.5283 16.5259 20.6359C16.2651 20.8928 16.0364 21.2496 15.7208 21.3666C15.3317 21.5109 15.3237 21.7916 15.2272 22.0708C15.2021 22.1435 15.1864 22.2283 15.1384 22.2829C14.7926 22.6763 15.0558 23.0347 15.2024 23.3933C15.2686 23.5553 15.5054 23.4656 15.5953 23.6006C15.7111 23.7747 15.8325 23.6849 15.9875 23.6711C16.6428 23.6127 17.3353 23.3955 17.8986 23.9592C18.016 24.0766 18.0889 24.0514 18.1586 23.9122C18.3408 23.5484 19.1087 23.4794 19.3839 23.8525C19.539 24.0627 19.4739 24.3426 19.4285 24.5826C19.3565 24.9628 18.9049 25.236 18.5337 25.1392C18.3463 25.0903 18.2294 25.1558 18.0657 25.2454C17.6333 25.4921 17.1224 25.5629 16.6392 25.4431C16.3603 25.3727 16.0944 25.25 15.8242 25.1467C15.7443 25.1161 15.6508 25.0892 15.6139 25.0036C15.5246 24.7963 15.4376 24.7648 15.1857 24.8325C14.9212 24.9036 14.6278 24.6966 14.4432 24.4784C14.3326 24.3477 14.2298 24.303 14.0783 24.2545C13.7817 24.1596 13.4487 24.0652 13.4619 23.6414C13.465 23.5398 13.4138 23.496 13.3148 23.5432C13.1778 23.6086 13.0443 23.5676 12.9221 23.5159C12.5071 23.3336 12.1103 23.1123 11.7371 22.8548C11.6262 22.7742 11.5509 22.6536 11.5273 22.5185C11.5007 22.3665 11.4642 22.2164 11.4183 22.0691C11.2814 21.7035 11.3306 21.3777 11.5679 21.0668C11.6379 20.9624 11.6877 20.8458 11.7147 20.7231C11.8264 20.3136 12.0111 19.9738 12.4498 19.8323C12.6664 19.7625 12.7273 19.6009 12.7026 19.3761C12.6841 19.146 12.68 18.9149 12.6902 18.6843C12.6904 18.6168 12.7102 18.5507 12.7473 18.4943C12.9929 18.1608 13.2443 17.8315 13.4968 17.5032C13.5413 17.4392 13.6039 17.3901 13.6765 17.362C13.7492 17.3339 13.8285 17.3283 13.9044 17.3457C13.9811 17.3549 14.0585 17.3573 14.1356 17.3528C14.5811 17.3539 14.5812 17.3536 14.6313 16.9231C14.6349 16.8654 14.6416 16.8079 14.6513 16.7509C14.7364 16.3747 15.7622 15.6474 16.1472 15.6882C16.6008 15.7364 16.5541 15.7009 16.7761 15.3205C17.1057 14.7561 17.6387 14.3552 18.1179 13.9173C18.1654 13.8739 18.265 13.8781 18.3407 13.8769C18.3672 13.8796 18.394 13.8769 18.4194 13.869C18.4448 13.861 18.4684 13.8481 18.4887 13.8308C18.509 13.8136 18.5256 13.7924 18.5376 13.7686C18.5495 13.7448 18.5565 13.7188 18.5581 13.6923C18.655 13.1238 18.9244 12.6822 19.5569 12.4573Z" fill="white"/>
</svg>
