<svg width="16" height="15" viewBox="0 0 16 15" fill="none" xmlns="http://www.w3.org/2000/svg">
<path fill-rule="evenodd" clip-rule="evenodd" d="M8.32767 7.46722C8.42933 7.40522 8.51557 7.27532 8.58513 7.13095C9.50051 7.50507 10.1438 8.38913 10.1438 9.42012C10.1438 10.7897 9.00852 11.9001 7.60813 11.9001C7.03327 11.9001 6.50309 11.7129 6.07778 11.3976C5.93827 11.3316 5.82349 11.2681 5.72956 11.2162C5.58387 11.1356 5.48833 11.0828 5.4285 11.0911C5.25363 11.1152 5.3044 11.2761 5.35055 11.4222C5.38186 11.5215 5.41107 11.614 5.36587 11.6522C5.31858 11.6921 5.16542 11.5461 4.98644 11.3754C4.74281 11.1432 4.45137 10.8653 4.31393 10.9487C4.20527 11.0147 4.31077 11.1938 4.43991 11.4129L4.44949 11.4292C4.50404 11.5218 4.56726 11.6162 4.62495 11.7022C4.74223 11.8772 4.83668 12.0181 4.78942 12.042C4.73229 12.0708 4.33427 11.8022 3.99885 11.4292C3.86938 11.2852 3.74399 11.1292 3.62745 10.9842V10.9842C3.37236 10.6668 3.15984 10.4024 3.04055 10.4337C2.89704 10.4714 3.0056 10.7674 3.16512 11.0522C3.23971 11.1855 3.32745 11.3211 3.40342 11.4386V11.4386C3.52157 11.6212 3.61125 11.7598 3.57873 11.7769C3.53484 11.7998 3.14868 11.4233 2.8864 10.9487C2.73061 10.6669 2.5998 10.3554 2.4939 10.1032C2.37905 9.82975 2.2935 9.62604 2.23717 9.60554C2.04145 9.53432 2.04145 9.93337 2.11995 10.5093C2.13019 10.5845 2.14544 10.6633 2.16421 10.7435C2.92547 13.2066 5.26397 15 8.03074 15C11.415 15 14.1585 12.3168 14.1585 9.0068C14.1585 5.85645 11.6733 3.27384 8.51569 3.03205C8.51968 2.88364 8.59714 2.58935 8.59714 2.58935C8.59714 2.58935 9.15457 1.24064 9.18404 0.952438C9.18598 0.933311 9.18829 0.912524 9.19078 0.890388C9.2255 0.578991 9.2901 0 8.79199 0C8.52598 0 8.40228 0.19789 8.26081 0.424216V0.424219C8.20649 0.511104 8.14954 0.602183 8.08093 0.687861C7.58675 1.30499 6.75577 2.07565 6.28459 2.48622C5.28867 3.35402 4.31156 4.06723 3.74168 4.48318L3.74165 4.48321C3.48246 4.67238 3.30753 4.80009 3.25339 4.85285C2.8454 5.25059 1.38254 7.88924 1.38254 7.88924C1.38254 7.88924 0.909471 8.7358 1.07762 8.90751C1.24577 9.07919 1.65126 9.03984 1.65126 9.03984C1.65126 9.03984 7.09875 7.79013 7.58645 7.69157C7.71776 7.66503 7.81046 7.64971 7.88162 7.63796C8.07483 7.60606 8.10952 7.60031 8.32767 7.46722ZM4.47609 5.86125C4.18368 6.13919 3.69873 6.80262 3.69873 6.80262C3.69873 6.80262 4.60002 6.85813 5.0964 6.38631C5.5928 5.91445 5.47907 5.11034 5.47907 5.11034C5.47907 5.11034 4.76848 5.58331 4.47609 5.86125Z" fill="white"/>
</svg>
