<svg width="11" height="15" viewBox="0 0 11 15" fill="none" xmlns="http://www.w3.org/2000/svg">
<path fill-rule="evenodd" clip-rule="evenodd" d="M10.6061 10.1523C10.6061 12.8296 8.42748 15 5.74004 15C3.05261 15 0.874023 12.8296 0.874023 10.1523C0.874023 7.54836 5.47683 0.396929 5.72926 0.00667442C5.73503 -0.00222486 5.74508 -0.00222478 5.75082 0.00667451C6.00326 0.396929 10.6061 7.54836 10.6061 10.1523ZM4.92889 13.4458C2.45964 12.9056 2.88218 10.1703 2.88218 10.1703C2.88218 10.1703 3.55645 11.8215 5.19272 12.3563C6.82897 12.8912 8.80636 12.1067 8.80636 12.1067C8.80636 12.1067 7.39814 13.9861 4.92889 13.4458Z" fill="white"/>
</svg>
